<svg width="40" height="40" viewBox="0 0 40 40" fill="none" xmlns="http://www.w3.org/2000/svg">
<path d="M35.7402 4.362C31.5975 0.219341 24.8568 0.219341 20.7142 4.362L13.2012 11.875L14.9691 13.6428L22.482 6.12973C24.0057 4.606 26.0723 3.74998 28.2272 3.74999C30.3821 3.75 32.4487 4.60603 33.9725 6.12977C35.4962 7.65351 36.3522 9.72014 36.3522 11.875C36.3522 14.0299 35.4962 16.0965 33.9724 17.6203L26.4594 25.1333L28.2269 26.9011L35.7399 19.388C39.8831 15.2454 39.8831 8.50473 35.7402 4.362Z" fill="black"/>
<path d="M17.6206 33.9722C16.0968 35.4959 14.0302 36.3519 11.8753 36.3519C9.72046 36.3519 7.65384 35.4959 6.1301 33.9722V33.9722C4.60638 32.4485 3.75035 30.3818 3.75035 28.2269C3.75035 26.0721 4.60638 24.0054 6.1301 22.4817L13.2013 15.4105L11.4335 13.6428L4.36229 20.714C3.37182 21.6998 2.58553 22.8712 2.04846 24.1613C1.51139 25.4514 1.23409 26.8348 1.23243 28.2322C1.23077 29.6296 1.50479 31.0137 2.0388 32.305C2.5728 33.5964 3.3563 34.7697 4.34443 35.7579C5.33256 36.746 6.50591 37.5295 7.79728 38.0635C9.08865 38.5975 10.4727 38.8715 11.8701 38.8698C13.2675 38.8682 14.6509 38.5908 15.941 38.0538C17.2311 37.5167 18.4025 36.7304 19.3883 35.7399L26.4594 28.6688L24.6917 26.9011L17.6206 33.9722Z" fill="black"/>
<path d="M27.7851 10.549L10.1074 28.2267L11.8752 29.9944L29.5529 12.3168L27.7851 10.549Z" fill="black"/>
</svg>
