<svg width="116" height="102" viewBox="0 0 116 102" fill="none" xmlns="http://www.w3.org/2000/svg">
<g clip-path="url(#clip0_113_85)">
<path d="M28.9258 29.4395C28.6523 29.4199 28.3691 29.127 28.0762 28.5605C27.8027 27.9941 27.6074 27.2715 27.4902 26.3926C27.3926 25.5137 27.3242 24.918 27.2852 24.6055C27.2461 24.293 27.207 24.0586 27.168 23.9023C27.1094 23.6094 26.9922 23.3555 26.8164 23.1406C26.6602 22.9062 26.5625 22.7305 26.5234 22.6133C26.4844 22.4375 26.4746 21.998 26.4941 21.2949C26.5332 19.791 26.4648 18.7949 26.2891 18.3066C26.2109 18.0918 26.1816 17.916 26.2012 17.7793C26.2207 17.6426 26.2207 17.4961 26.2012 17.3398C26.2012 17.1836 26.1523 17.0176 26.0547 16.8418C25.957 16.666 25.8594 16.4609 25.7617 16.2266C25.4492 15.6016 25.293 15.1719 25.293 14.9375C25.293 14.6445 25.3906 14.3125 25.5859 13.9414C26.0156 13.2188 26.2598 12.7207 26.3184 12.4473C26.3965 12.1543 26.4258 11.793 26.4062 11.3633C26.4062 10.9141 26.4062 10.4648 26.4062 10.0156C26.3672 8.86328 26.4648 8.14062 26.6992 7.84766C26.8555 7.69141 27.041 7.58398 27.2559 7.52539C27.4707 7.4668 27.7441 7.37891 28.0762 7.26172C28.7402 7.02734 29.2383 6.91016 29.5703 6.91016C29.9219 6.91016 30.1953 7.00781 30.3906 7.20312C30.6055 7.37891 30.8496 7.48633 31.123 7.52539C31.3965 7.54492 31.582 7.54492 31.6797 7.52539C31.7969 7.48633 31.8945 7.45703 31.9727 7.4375C32.207 7.33984 32.4023 7.29102 32.5586 7.29102C32.8125 7.29102 32.998 7.38867 33.1152 7.58398C33.2324 7.7793 33.3398 7.94531 33.4375 8.08203C33.5352 8.19922 33.6914 8.22852 33.9062 8.16992C34.1406 8.11133 34.3164 8.08203 34.4336 8.08203C34.5508 8.08203 34.6484 8.08203 34.7266 8.08203C35.0195 8.12109 35.2734 8.11133 35.4883 8.05273C35.918 7.91602 36.25 7.98437 36.4844 8.25781C36.543 8.39453 36.6797 8.49219 36.8945 8.55078C37.1094 8.60938 37.2949 8.6875 37.4512 8.78516C37.8223 8.98047 38.0762 9.32227 38.2129 9.81055C38.4863 10.709 38.5254 11.6367 38.3301 12.5938C38.252 12.9258 38.1836 13.1895 38.125 13.3848C38.0859 13.5801 38.0469 13.7559 38.0078 13.9121C37.9883 14.0488 37.9688 14.1855 37.9492 14.3223C37.9492 14.459 37.9395 14.625 37.9199 14.8203C37.9199 15.0156 37.9199 15.2305 37.9199 15.4648V16.2559C37.9199 16.8613 37.9395 17.3398 37.9785 17.6914C38.0957 18.668 37.6562 19.3711 36.6602 19.8008C36.3281 19.9375 36.0938 20.0645 35.957 20.1816C35.8203 20.2988 35.7031 20.4746 35.6055 20.709C35.5078 20.9434 35.3223 21.2363 35.0488 21.5879C34.7949 21.9395 34.3945 22.2227 33.8477 22.4375C33.3203 22.6328 32.8613 22.7988 32.4707 22.9355C32.0801 23.0723 31.8359 23.2383 31.7383 23.4336C31.6016 23.6875 31.5625 24.293 31.6211 25.25C31.6992 26.1875 31.7285 26.7832 31.709 27.0371C31.6895 27.291 31.6602 27.5059 31.6211 27.6816C31.582 27.8379 31.4844 27.9648 31.3281 28.0625C31.1719 28.1602 31.0352 28.209 30.918 28.209C30.8008 28.209 30.6738 28.2676 30.5371 28.3848C30.4199 28.502 30.3125 28.6191 30.2148 28.7363C30.1172 28.8535 30.0098 28.9609 29.8926 29.0586C29.6191 29.3125 29.2969 29.4395 28.9258 29.4395ZM30.918 13.0332C30.8008 13.1504 30.6836 13.4922 30.5664 14.0586C30.4492 14.625 30.3906 15.0742 30.3906 15.4062C30.3906 15.7383 30.459 16.041 30.5957 16.3145C30.7324 16.5684 30.791 16.7832 30.7715 16.959C30.7715 17.1152 30.752 17.291 30.7129 17.4863C30.6934 17.6621 30.6836 17.8477 30.6836 18.043C30.6445 18.5117 30.6836 18.8047 30.8008 18.9219C30.918 19.0391 31.0449 19.0879 31.1816 19.0684C31.3379 19.0293 31.4941 18.9707 31.6504 18.8926C31.8066 18.8145 31.9434 18.7363 32.0605 18.6582C32.1973 18.5605 32.3242 18.4922 32.4414 18.4531C32.5781 18.4141 32.6758 18.3262 32.7344 18.1895C32.793 18.0527 32.8809 17.9355 32.998 17.8379C33.1348 17.7402 33.2227 17.6133 33.2617 17.457C33.3203 17.2812 33.3691 17.1055 33.4082 16.9297C33.4668 16.7344 33.4668 16.5586 33.4082 16.4023C33.3496 16.2266 33.2422 15.9727 33.0859 15.6406C32.9688 15.3086 32.9297 15.0449 32.9688 14.8496C33.125 14.0293 33.0273 13.4629 32.6758 13.1504C32.2266 12.877 31.8457 12.7598 31.5332 12.7988C31.2402 12.8379 31.0352 12.916 30.918 13.0332ZM47.3535 25.3086L47.3828 23.082V22.3496C47.3828 21.7637 47.3242 21.3926 47.207 21.2363C47.0312 20.9629 46.7578 20.8359 46.3867 20.8555C46.0156 20.8555 45.7422 20.9629 45.5664 21.1777C45.4102 21.3926 45.3125 21.6562 45.2734 21.9688C45.2539 22.2812 45.2344 22.623 45.2148 22.9941C45.2148 23.3652 45.2148 23.7656 45.2148 24.1953C45.1758 25.0547 45.1758 25.7188 45.2148 26.1875C45.2734 26.6562 45.2734 26.959 45.2148 27.0957C45.1758 27.2129 45.0781 27.3398 44.9219 27.4766C44.7656 27.5938 44.6387 27.7598 44.541 27.9746C44.4434 28.1699 44.3555 28.375 44.2773 28.5898C44.043 29.0977 43.7988 29.3613 43.5449 29.3809C42.7832 29.459 42.1289 29.0488 41.582 28.1504C41.4648 27.9355 41.3086 27.7305 41.1133 27.5352C40.7031 27.0859 40.625 26.3633 40.8789 25.3672C40.9766 24.8984 41.0254 24.4199 41.0254 23.9316C41.0254 23.4238 41.0059 23.0625 40.9668 22.8477C40.9277 22.6328 40.9277 22.3984 40.9668 22.1445C41.0059 21.8711 40.9766 21.6367 40.8789 21.4414C40.7812 21.2266 40.7422 20.9531 40.7617 20.6211C40.8008 20.2891 40.7812 20.0059 40.7031 19.7715C40.6445 19.5176 40.6348 19.293 40.6738 19.0977C40.7129 18.9023 40.6836 18.7461 40.5859 18.6289C40.5078 18.5117 40.4785 18.3457 40.498 18.1309C40.5371 17.8965 40.5664 17.6523 40.5859 17.3984C40.6445 16.6953 40.5566 16.1582 40.3223 15.7871C40.0879 15.416 39.8828 14.9863 39.707 14.498C39.5508 14.0098 39.5801 13.4238 39.7949 12.7402C40.127 11.7051 40.2246 10.5625 40.0879 9.3125C40.0488 9 40.1172 8.63867 40.293 8.22852C40.5469 7.58398 41.377 7.22266 42.7832 7.14453C43.2324 7.125 43.6328 7.06641 43.9844 6.96875C44.3555 6.87109 44.7168 6.87109 45.0684 6.96875C45.4395 7.04687 45.6543 7.27148 45.7129 7.64258C45.7715 8.01367 45.8203 8.26758 45.8594 8.4043C45.918 8.54102 45.957 8.67773 45.9766 8.81445C46.0156 9.06836 45.9766 9.47852 45.8594 10.0449C45.7422 10.5918 45.6738 11.0605 45.6543 11.4512C45.6348 11.8223 45.625 12.1836 45.625 12.5352C45.6641 13.3945 45.625 14.0098 45.5078 14.3809C45.4102 14.7324 45.3809 15.0059 45.4199 15.2012C45.459 15.377 45.5371 15.5234 45.6543 15.6406C46.0449 15.9922 46.582 15.9531 47.2656 15.5234C47.3633 15.4648 47.4512 15.3672 47.5293 15.2305C47.4316 14.6836 47.373 14.0098 47.3535 13.209C47.334 12.0176 47.2949 11.0898 47.2363 10.4258C47.1777 9.74219 47.1875 9.17578 47.2656 8.72656C47.3438 8.27734 47.5488 7.85742 47.8809 7.4668C48.2129 7.07617 48.5156 6.91016 48.7891 6.96875C49.082 7.00781 49.3164 7.125 49.4922 7.32031C49.6875 7.49609 49.8633 7.57422 50.0195 7.55469C50.1758 7.53516 50.3906 7.4375 50.6641 7.26172C51.3867 6.83203 52.0605 7.0957 52.6855 8.05273C52.4902 8.24805 52.4316 8.60938 52.5098 9.13672C52.6074 9.64453 52.627 10.0156 52.5684 10.25C52.5098 10.4648 52.4707 10.7773 52.4512 11.1875C52.4316 11.5781 52.4121 11.959 52.3926 12.3301C52.3926 12.7012 52.3438 13.1895 52.2461 13.7949C52.1094 14.6348 52.0996 15.6016 52.2168 16.6953C52.334 17.7891 52.3535 18.7754 52.2754 19.6543C52.1973 20.5332 52.1777 21.2656 52.2168 21.8516C52.2559 22.4375 52.2363 22.8281 52.1582 23.0234C52.0996 23.2188 52.0312 23.4141 51.9531 23.6094C51.6602 24.1758 51.4941 24.752 51.4551 25.3379C51.416 25.8262 51.3867 26.3145 51.3672 26.8027C51.3477 27.2715 51.2988 27.6914 51.2207 28.0625C51.0449 28.9023 50.6445 29.3223 50.0195 29.3223C49.3164 29.3223 48.916 28.7852 48.8184 27.7109C48.3691 27.5742 47.998 27.3398 47.7051 27.0078C47.4316 26.6758 47.3145 26.1094 47.3535 25.3086ZM56.2891 29.3516C56.0938 29.4102 55.8691 29.3906 55.6152 29.293C55.3809 29.2148 55.2148 29.0586 55.1172 28.8242C55.0195 28.5703 54.9512 28.2871 54.9121 27.9746C54.8926 27.6426 54.8926 27.291 54.9121 26.9199C54.9316 26.5488 54.9414 26.1875 54.9414 25.8359C54.9414 25.0547 54.8145 24.5566 54.5605 24.3418C54.0332 23.9512 53.8184 22.9551 53.916 21.3535C54.0137 20.4355 54.1211 19.7031 54.2383 19.1562C54.4336 18.2578 54.5215 17.4961 54.502 16.8711C54.502 16.2461 54.5215 15.7578 54.5605 15.4062C54.6191 15.0547 54.6777 14.7617 54.7363 14.5273C54.8145 14.293 54.9023 14.0488 55 13.7949C55.0977 13.541 55.1855 13.1211 55.2637 12.5352C55.459 11.0703 55.6348 10.1621 55.791 9.81055C56.0059 9.32227 56.2598 8.82422 56.5527 8.31641C56.8652 7.78906 57.1191 7.4375 57.3145 7.26172C57.7637 6.92969 58.4082 6.90039 59.248 7.17383C59.873 7.38867 60.4492 7.45703 60.9766 7.37891C61.5234 7.30078 61.9336 7.27148 62.207 7.29102C62.5 7.29102 62.8223 7.39844 63.1738 7.61328C63.5254 7.80859 63.7988 8.05273 63.9941 8.3457C64.1895 8.61914 64.3262 8.92187 64.4043 9.25391C64.541 9.82031 64.5508 10.543 64.4336 11.4219C64.3164 12.2813 64.2676 12.9844 64.2871 13.5312C64.3262 14.0586 64.4434 14.5664 64.6387 15.0547C64.8535 15.5234 64.9902 15.9043 65.0488 16.1973C65.127 16.4707 65.1855 16.7539 65.2246 17.0469C65.2832 17.3203 65.3223 17.623 65.3418 17.9551C65.3809 18.2676 65.4395 18.6289 65.5176 19.0391C65.6152 19.4492 65.6641 19.7812 65.6641 20.0352C65.6836 20.2695 65.6836 20.4648 65.6641 20.6211C65.6445 20.7773 65.6152 20.9238 65.5762 21.0605C65.5566 21.1777 65.5664 21.373 65.6055 21.6465C65.6641 21.9004 65.6641 22.1836 65.6055 22.4961C65.5664 22.8086 65.5176 23.1113 65.459 23.4043C65.2441 24.3027 65.1562 24.9375 65.1953 25.3086C65.2734 25.9727 65.2734 26.4512 65.1953 26.7441C65.1172 27.0176 65.0391 27.2422 64.9609 27.418C64.9023 27.5938 64.8242 27.8379 64.7266 28.1504C64.6484 28.4629 64.4727 28.7461 64.1992 29C63.9258 29.2539 63.6621 29.332 63.4082 29.2344C63.1738 29.1367 63.0176 29 62.9395 28.8242C62.8809 28.6289 62.8223 28.4336 62.7637 28.2383C62.7246 28.043 62.666 27.8672 62.5879 27.7109C62.5293 27.5547 62.4121 27.4668 62.2363 27.4473C61.9238 27.4082 61.7578 27.2324 61.7383 26.9199C61.7188 26.5879 61.7188 26.3047 61.7383 26.0703C61.7773 25.8164 61.7676 25.5625 61.709 25.3086C61.6504 25.0547 61.5527 24.8105 61.416 24.5762C61.0645 23.9707 60.6543 23.6387 60.1855 23.5801C59.4824 23.4824 58.9941 23.8242 58.7207 24.6055C58.6621 24.8008 58.6133 25.0645 58.5742 25.3965C58.5547 25.709 58.4766 25.9922 58.3398 26.2461C58.2227 26.5 58.0859 26.7148 57.9297 26.8906C57.793 27.0664 57.6562 27.2324 57.5195 27.3887C57.4023 27.5254 57.3242 27.7012 57.2852 27.916C57.1289 28.7559 56.7969 29.2344 56.2891 29.3516ZM58.8965 17.0762C58.5059 18.1309 58.457 18.9707 58.75 19.5957C58.9453 19.9473 59.1992 20.1328 59.5117 20.1523C60.0781 20.2109 60.4102 20.1719 60.5078 20.0352C60.625 19.8789 60.752 19.7227 60.8887 19.5664C61.0449 19.3906 61.1035 19.1367 61.0645 18.8047C61.0254 18.4531 60.9961 18.1504 60.9766 17.8965C60.957 17.623 60.8594 17.3203 60.6836 16.9883C60.5273 16.6562 60.4199 16.3047 60.3613 15.9336C60.3027 15.543 60.2637 15.1719 60.2441 14.8203C60.166 14.0391 59.9902 13.6484 59.7168 13.6484C59.5215 13.6484 59.3945 13.7559 59.3359 13.9707C59.2969 14.166 59.2676 14.4297 59.248 14.7617C59.2285 15.7773 59.1113 16.5488 58.8965 17.0762ZM77.9688 11.9199C78.0273 12.0371 78.0469 12.1641 78.0273 12.3008C78.0078 12.4375 77.8711 12.6719 77.6172 13.0039C77.3633 13.3359 77.207 13.6973 77.1484 14.0879C77.1094 14.459 77.0996 14.7715 77.1191 15.0254C77.1387 15.2598 77.1387 15.4648 77.1191 15.6406C77.0996 16.0703 76.8652 16.3633 76.416 16.5195C76.0254 16.6758 75.7227 16.666 75.5078 16.4902C75.293 16.3145 75.1172 16.0898 74.9805 15.8164C74.8438 15.5234 74.7363 15.2793 74.6582 15.084C74.5996 14.8691 74.4922 14.752 74.3359 14.7324C74.0625 14.6738 73.8477 14.7031 73.6914 14.8203C73.5547 14.9375 73.4473 15.0352 73.3691 15.1133C73.2129 15.2695 73.0469 15.377 72.8711 15.4355C72.7148 15.4941 72.5879 15.5527 72.4902 15.6113C72.2949 15.748 72.2168 15.9727 72.2559 16.2852C72.334 16.8906 73.0078 17.8086 74.2773 19.0391C74.5117 19.2734 74.7852 19.5273 75.0977 19.8008C75.4297 20.0742 75.752 20.3867 76.0645 20.7383C76.7676 21.5781 77.1582 22.5254 77.2363 23.5801C77.3145 24.6543 77.1582 25.5918 76.7676 26.3926C76.4551 27.0371 76.084 27.457 75.6543 27.6523C75.3223 27.8281 75.0977 28.0625 74.9805 28.3555C74.8633 28.6289 74.7754 28.834 74.7168 28.9707C74.6582 29.0879 74.5312 29.1855 74.3359 29.2637C74.1602 29.3613 73.9551 29.4004 73.7207 29.3809C73.4863 29.3613 73.2617 29.3125 73.0469 29.2344C72.8516 29.1758 72.666 29.0977 72.4902 29C72.334 28.9219 72.1973 28.873 72.0801 28.8535C71.9824 28.834 71.8848 28.873 71.7871 28.9707C71.6895 29.0488 71.5918 29.1367 71.4941 29.2344C71.2012 29.5273 70.9375 29.6348 70.7031 29.5566C70.4688 29.498 70.1953 29.3906 69.8828 29.2344C69.5703 29.0781 69.2676 28.8828 68.9746 28.6484C67.9199 27.8281 67.5586 26.9883 67.8906 26.1289C68.1055 25.5625 68.3398 25.1621 68.5938 24.9277C68.8672 24.6934 69.082 24.5762 69.2383 24.5762C69.4922 24.5762 69.6582 24.6738 69.7363 24.8691C69.834 25.0449 69.9121 25.2012 69.9707 25.3379C70.0293 25.4551 70.0977 25.5527 70.1758 25.6309C70.2539 25.709 70.3711 25.7871 70.5273 25.8652C70.7031 25.9434 70.8887 25.9922 71.084 26.0117C71.5723 26.0508 71.9434 25.8555 72.1973 25.4258C72.4512 24.9961 72.5488 24.5273 72.4902 24.0195C72.3535 23.1016 72.1582 22.7109 71.9043 22.8477C71.6895 22.9844 71.4258 22.9941 71.1133 22.877C70.8008 22.7402 70.6348 22.5742 70.6152 22.3789C70.5957 22.1641 70.5566 21.959 70.498 21.7637C70.4395 21.5684 70.3711 21.3828 70.293 21.207C70.1172 20.7578 69.9609 20.5137 69.8242 20.4746C69.668 20.4355 69.4531 20.416 69.1797 20.416C68.9258 20.416 68.6426 20.25 68.3301 19.918C68.0176 19.5664 67.793 19.1367 67.6562 18.6289C67.5195 18.1016 67.4023 17.6523 67.3047 17.2812C67.207 16.8906 67.1191 16.5879 67.041 16.373C66.9629 16.1582 66.8945 15.9336 66.8359 15.6992C66.6406 14.957 66.6309 14 66.8066 12.8281C66.9238 12.1445 67.1387 11.5488 67.4512 11.041C67.7637 10.5137 68.1152 9.99609 68.5059 9.48828C69.248 8.49219 69.9316 7.79883 70.5566 7.4082C71.1816 7.01758 71.6602 6.97852 71.9922 7.29102C72.2852 7.54492 72.5977 7.65234 72.9297 7.61328C73.2812 7.55469 73.5547 7.49609 73.75 7.4375L74.2773 7.32031C74.6094 7.24219 74.9414 7.25195 75.2734 7.34961C75.625 7.44727 75.9375 7.7793 76.2109 8.3457C76.3477 8.63867 76.4844 8.89258 76.6211 9.10742C76.7773 9.32227 76.9238 9.52734 77.0605 9.72266C77.3535 10.1914 77.5195 10.582 77.5586 10.8945C77.6172 11.1875 77.6855 11.4023 77.7637 11.5391C77.8613 11.6758 77.9297 11.8027 77.9688 11.9199ZM79.8145 23.4922L79.7852 21.998C79.7852 21.7246 79.7949 21.4707 79.8145 21.2363C79.834 20.9824 79.8145 20.6699 79.7559 20.2988C79.6582 19.6543 79.6094 19.1855 79.6094 18.8926C79.6289 18.5801 79.6289 18.3359 79.6094 18.1602C79.6094 17.9648 79.5898 17.7891 79.5508 17.6328C79.4922 17.3984 79.3457 17.0273 79.1113 16.5195C78.8965 16.0117 78.7891 15.4648 78.7891 14.8789C78.7891 14.293 78.916 13.8242 79.1699 13.4727C79.4043 13.1211 79.4922 12.7598 79.4336 12.3887C79.375 12.0176 79.3262 11.627 79.2871 11.2168C79.2676 10.7871 79.2676 10.3574 79.2871 9.92773C79.3066 9.47852 79.4043 9.04883 79.5801 8.63867C80.0098 7.64258 80.8691 7.16406 82.1582 7.20312C82.959 7.22266 83.6523 7.30078 84.2383 7.4375C84.8242 7.57422 85.2539 7.63281 85.5273 7.61328C85.8008 7.59375 86.2207 7.49609 86.7871 7.32031C87.6074 7.00781 88.2617 7.02734 88.75 7.37891C88.8867 7.47656 89.0137 7.55469 89.1309 7.61328C89.2676 7.65234 89.3848 7.7207 89.4824 7.81836C89.8145 8.18945 89.9121 9 89.7754 10.25C89.7363 10.6211 89.6973 10.9922 89.6582 11.3633C89.5605 12.2422 89.5605 12.8965 89.6582 13.3262C89.7559 13.7559 89.8047 14.1367 89.8047 14.4688C89.8242 14.7812 89.8145 15.0645 89.7754 15.3184C89.6582 15.8848 89.4336 16.168 89.1016 16.168C88.8086 16.1484 88.5938 16.0605 88.457 15.9043C88.3398 15.7285 88.2422 15.543 88.1641 15.3477C88.0859 15.1328 87.998 14.9473 87.9004 14.791C87.8223 14.6152 87.6367 14.5273 87.3438 14.5273C86.4844 14.5273 85.9082 14.4395 85.6152 14.2637C85.3418 14.0684 85.0977 13.9609 84.8828 13.9414C84.668 13.9023 84.4629 13.9219 84.2676 14C83.8574 14.1758 83.6133 14.498 83.5352 14.9668C83.4766 15.4355 83.4375 15.8457 83.418 16.1973C83.3984 16.5488 83.3984 16.8711 83.418 17.1641C83.457 17.8477 83.584 18.2383 83.7988 18.3359C84.0332 18.4141 84.2285 18.4238 84.3848 18.3652C84.541 18.2871 84.6973 18.1992 84.8535 18.1016C85.3223 17.7891 85.8008 17.6426 86.2891 17.6621C86.7969 17.6621 87.168 17.8574 87.4023 18.248C87.6562 18.6387 87.7637 19.0195 87.7246 19.3906C87.6855 19.7422 87.6465 20.0938 87.6074 20.4453C87.5879 20.7969 87.5488 21.1289 87.4902 21.4414C87.2168 22.6523 86.6504 22.8867 85.791 22.1445C84.6777 22.0664 83.9844 22.2031 83.7109 22.5547C83.6523 22.6523 83.5938 22.8574 83.5352 23.1699C83.4766 23.4824 83.4668 23.8145 83.5059 24.166C83.6035 25.084 84.043 25.5723 84.8242 25.6309C85.332 25.6699 85.791 25.6016 86.2012 25.4258C86.6309 25.25 86.9141 25.0547 87.0508 24.8398C87.168 24.6055 87.3145 24.4785 87.4902 24.459C87.666 24.4199 87.8223 24.3906 87.959 24.3711C88.0957 24.332 88.2324 24.3125 88.3691 24.3125C88.5059 24.3125 88.6426 24.332 88.7793 24.3711C89.1309 24.4883 89.3359 24.7617 89.3945 25.1914C89.4727 25.6211 89.4336 26.0117 89.2773 26.3633C89.1211 26.7148 89.0137 27.0371 88.9551 27.3301C88.916 27.6035 88.877 27.8086 88.8379 27.9453C88.7988 28.082 88.6816 28.2578 88.4863 28.4727C88.3105 28.668 88.1641 28.834 88.0469 28.9707C87.9492 29.1074 87.7832 29.0781 87.5488 28.8828C87.1191 28.5508 86.6016 28.7461 85.9961 29.4688C85.8398 29.6836 85.6738 29.8398 85.498 29.9375C85.3223 30.0352 85.0488 30.0742 84.6777 30.0547C84.3066 30.0352 84.0137 29.9375 83.7988 29.7617C83.584 29.5859 83.3887 29.4102 83.2129 29.2344C82.9199 28.8633 82.4121 28.7266 81.6895 28.8242C81.2598 28.8828 80.9082 28.6973 80.6348 28.2676C80.5762 28.209 80.5273 28.1016 80.4883 27.9453C80.4688 27.7891 80.4395 27.6133 80.4004 27.418C80.2637 26.9102 80.1367 26.5879 80.0195 26.4512C79.9219 26.2949 79.8633 26.0996 79.8438 25.8652C79.8438 25.6309 79.8242 25.3867 79.7852 25.1328C79.7461 24.8594 79.7168 24.6641 79.6973 24.5469C79.6777 24.4102 79.6875 24.2539 79.7266 24.0781C79.7852 23.9023 79.8145 23.707 79.8145 23.4922Z" fill="white"/>
<path d="M65.998 61.707C69.0059 63.4388 71.125 65.6947 72.3555 68.4746C72.7656 69.3861 72.9707 70.2975 72.9707 71.209C72.9707 72.3483 72.5605 74.1257 71.7402 76.541C70.9655 78.9564 70.4414 80.8249 70.168 82.1465C69.8945 83.4225 69.4388 84.2884 68.8008 84.7441C68.2083 85.1999 67.6615 85.4733 67.1602 85.5645C66.6589 85.6556 66.1803 85.7012 65.7246 85.7012H64.3574C63.3548 85.7012 62.5117 85.9518 61.8281 86.4531L60.1191 87.6152C59.2533 88.2533 58.2279 88.5723 57.043 88.5723C55.9036 88.5723 55.1517 88.4811 54.7871 88.2988C54.4681 88.1621 54.1947 88.0026 53.9668 87.8203C53.7845 87.638 53.5566 87.4557 53.2832 87.2734C53.0553 87.0911 52.5768 86.9772 51.8477 86.9316C51.1185 86.8405 50.4121 86.5443 49.7285 86.043C49.0449 85.4961 48.4525 84.8581 47.9512 84.1289C46.8118 82.5339 46.3333 81.0299 46.5156 79.6172C46.6068 78.4323 47.2448 77.6576 48.4297 77.293C49.888 76.7917 51.3008 77.3385 52.668 78.9336C53.7617 80.1641 54.8555 80.7793 55.9492 80.7793C56.6328 80.7793 57.4303 80.4375 58.3418 79.7539C59.2533 79.0703 59.9824 78.4323 60.5293 77.8398C61.0762 77.2018 61.4635 76.2904 61.6914 75.1055C61.8737 74.5586 62.0332 73.9889 62.1699 73.3965C62.3066 72.7585 62.0104 72.0749 61.2812 71.3457C60.5065 70.6165 59.8913 70.252 59.4355 70.252C58.9798 70.252 58.4102 70.4342 57.7266 70.7988C57.043 71.1634 56.4277 71.3913 55.8809 71.4824C55.334 71.5736 54.7643 71.5508 54.1719 71.4141C52.8503 71.0495 51.7793 70.0241 50.959 68.3379C50.0931 66.7884 50.1159 65.3984 51.0273 64.168C51.6198 63.4388 52.3262 62.9603 53.1465 62.7324C54.0124 62.5046 54.7871 62.1172 55.4707 61.5703C56.1543 61.0234 56.7467 60.3854 57.248 59.6562C58.5697 57.8333 58.8659 56.2611 58.1367 54.9395C57.681 54.0736 57.1797 53.6406 56.6328 53.6406C56.1315 53.6406 55.6302 53.7318 55.1289 53.9141C54.6276 54.0964 54.263 54.3014 54.0352 54.5293C53.8073 54.7116 53.6022 54.9167 53.4199 55.1445C52.9642 55.6914 52.4629 56.0104 51.916 56.1016C51.4147 56.1471 51.0273 56.1016 50.7539 55.9648C50.526 55.7826 50.321 55.5547 50.1387 55.2812C49.5918 54.6432 48.8398 54.3242 47.8828 54.3242C46.9258 54.2786 46.0143 54.0964 45.1484 53.7773C44.3281 53.4583 43.7812 52.7064 43.5078 51.5215C43.2799 50.3366 43.3483 49.0605 43.7129 47.6934C44.0775 46.2806 44.6471 44.8906 45.4219 43.5234C47.2448 40.3333 49.4095 38.2142 51.916 37.166C53.4655 35.4798 55.5391 34.9102 58.1367 35.457C60.0508 34.5456 61.8965 34.9102 63.6738 36.5508C65.1777 37.8268 66.0436 39.3079 66.2715 40.9941C67.4564 41.7233 68.4134 42.6803 69.1426 43.8652C69.8717 45.0046 70.373 46.4401 70.6465 48.1719C70.9199 49.9036 70.9655 51.2936 70.7832 52.3418C70.6465 53.39 70.4186 54.3242 70.0996 55.1445C69.6895 56.1927 69.1654 57.1953 68.5273 58.1523C67.8893 59.1094 67.3652 59.793 66.9551 60.2031C66.5905 60.5677 66.2715 61.069 65.998 61.707Z" fill="white"/>
</g>
<defs>
<clipPath id="clip0_113_85">
<rect width="116" height="102" fill="white"/>
</clipPath>
</defs>
</svg>
