<svg width="40" height="40" viewBox="0 0 40 40" fill="none" xmlns="http://www.w3.org/2000/svg">
<path d="M21.8017 17.8533L13.825 6.67C13.7325 6.54007 13.6102 6.43416 13.4685 6.36109C13.3267 6.28803 13.1695 6.24994 13.01 6.25H8.79999C8.61649 6.25024 8.43659 6.30096 8.28 6.39661C8.1234 6.49226 7.99614 6.62916 7.91216 6.79231C7.82817 6.95546 7.7907 7.13858 7.80384 7.32161C7.81698 7.50463 7.88022 7.68052 7.98665 7.83L18.1983 22.1467M21.8017 17.8533L32.0133 32.17C32.1198 32.3195 32.183 32.4954 32.1961 32.6784C32.2093 32.8614 32.1718 33.0445 32.0878 33.2077C32.0038 33.3708 31.8766 33.5077 31.72 33.6034C31.5634 33.699 31.3835 33.7498 31.2 33.75H26.99C26.8305 33.7501 26.6733 33.712 26.5315 33.6389C26.3897 33.5658 26.2675 33.4599 26.175 33.33L18.1983 22.1467M21.8017 17.8533L31.5383 6.25M18.1983 22.1467L8.46165 33.75" stroke="black" stroke-width="1.5" stroke-linecap="round" stroke-linejoin="round"/>
</svg>
